<svg xmlns="http://www.w3.org/2000/svg" viewBox="0 0 64 64">
  <defs>
    <linearGradient id="iconOrange" x1="70" y1="60" x2="260" y2="280" gradientUnits="userSpaceOnUse">
      <stop offset="0" stop-color="#FAA57A"/>
      <stop offset="0.5" stop-color="#F26522"/>
      <stop offset="1" stop-color="#DF4508"/>
    </linearGradient>
    <linearGradient id="iconNavy" x1="148" y1="44" x2="232" y2="150" gradientUnits="userSpaceOnUse">
      <stop offset="0" stop-color="#33447F"/>
      <stop offset="1" stop-color="#0E1A40"/>
    </linearGradient>
  </defs>
  <rect width="64" height="64" rx="14" fill="#ffffff"/>
  <g transform="translate(-4.92,-1.74) scale(0.242)">
    <!-- Orange G: ring open at the upper-right + solid inward arm -->
    <path d="M 228 160 A 78 78 0 1 1 155 83" stroke="url(#iconOrange)" stroke-width="50" fill="none" stroke-linecap="round"/>
    <rect x="155" y="135" width="82" height="50" rx="25" fill="url(#iconOrange)"/>
    <!-- Navy tile: magnifier (inspector) + sparkle (brilliance) -->
    <rect x="146" y="42" width="82" height="82" rx="18" fill="url(#iconNavy)"/>
    <circle cx="178" cy="76" r="13.5" fill="none" stroke="#ffffff" stroke-width="5.5"/>
    <line x1="187.5" y1="85.5" x2="198" y2="96" stroke="#ffffff" stroke-width="6.5" stroke-linecap="round"/>
    <path d="M 204 54 C 205.4 59.6 206.8 61 212 62.4 C 206.8 63.8 205.4 65.2 204 70.8 C 202.6 65.2 201.2 63.8 196 62.4 C 201.2 61 202.6 59.6 204 54 Z" fill="#ffffff"/>
  </g>
</svg>
